# xmcd
#
# Track frame offsets:
#        150
#        18747
#        36665
#        55007
#        73490
#        91007
#        108965
#        126902
#        144625
#        161884
#        180015
#        197925
#        215217
#        232827
#        251455
#        269087
#        287385
#        305295
#
# Disc length: 4315 seconds
#
# Revision: 0
# Processed by: cddbd v1.5.1PL2 Copyright (c) Steve Scherf et al.
# Submitted via: ExactAudioCopy v0.95a5
#
DISCID=0e10d912
DTITLE=Various Artist - SUPER EUROBEAT VOL.91
DYEAR=1999
DGENRE=Eurodance
TTITLE0=MEGA NRG MAN - WELCOME TO THE MUSIC
TTITLE1=DAVE and KAREN - COULD IT BE MAGIC
TTITLE2=SOPHIE - DON'T YOU (FORGET ABOUT MY LOVE)
TTITLE3=DELTA QUEENS - TURN IT SROUND
TTITLE4=KING and QUEEN - TWIST and SHOUT
TTITLE5=ATRIUM - NIGHT IN TOKYO
TTITLE6=ALEXIS - BABE JET'AMIE
TTITLE7=MAD MAX - STAY WITH ME
TTITLE8=VANESSA - BYE BYE
TTITLE9=EDO BOYS - MY ROCK IS FOR JAPAN
TTITLE10=LOLITA - CRAZY DANCER
TTITLE11=KATE and KAREN - CRAZY GIRLS
TTITLE12=ROBERT PATTON - LOVE IN PARADAISE
TTITLE13=KAREN - READY TO CELEBRATE
TTITLE14=LEILA - YOU'RE TEH ONE
TTITLE15=MIVKY B. - NEVER ALONE
TTITLE16=DERRECK SIMONS - MAKE MY DAY
TTITLE17=SARA - MEMORIES
EXTD=
EXTT0=
EXTT1=
EXTT2=
EXTT3=
EXTT4=
EXTT5=
EXTT6=
EXTT7=
EXTT8=
EXTT9=
EXTT10=
EXTT11=
EXTT12=
EXTT13=
EXTT14=
EXTT15=
EXTT16=
EXTT17=
PLAYORDER=
